  0
SECTION
  2
TABLES
  0
TABLE
  2
LTYPE
 70
      2
  0
LTYPE
  2
CONTINUOUS
 70
     64
  3
Solid Line
 72
     65
 73
      0
 40
0.0
  0
LTYPE
  2
HIDDEN
 70
     64
  3
- - - - - - - - - - - - 
 72
     65
 73
2
 40
0.375
 49
0.25
 49
-0.125
  0
ENDTAB
  0
TABLE
  2
LAYER
 70
    16
  0
LAYER
  2
0
 70
     0
 62
7
 6
HIDDEN
  0
LAYER
  2
1
 70
     0
 62
7
 6
CONTINUOUS
0
LAYER
  2
2
 70
     0
 62
7
 6
CONTINUOUS
0
LAYER
  2
3
 70
     0
 62
7
 6
CONTINUOUS
0
LAYER
  2
4
 70
     0
 62
7
 6
CONTINUOUS
0
LAYER
  2
5
 70
     0
 62
7
 6
CONTINUOUS
0
LAYER
  2
6
 70
     0
 62
7
 6
CONTINUOUS
0
LAYER
  2
7
 70
     0
 62
7
 6
CONTINUOUS
0
LAYER
  2
8
 70
     0
 62
7
 6
CONTINUOUS
0
LAYER
  2
9
 70
     0
 62
7
 6
CONTINUOUS
0
LAYER
  2
10
 70
     0
 62
7
 6
CONTINUOUS
0
LAYER
  2
11
 70
     0
 62
7
 6
CONTINUOUS
0
LAYER
  2
12
 70
     0
 62
7
 6
CONTINUOUS
0
LAYER
  2
13
 70
     0
 62
7
 6
CONTINUOUS
0
LAYER
  2
14
 70
     0
 62
7
 6
CONTINUOUS
0
LAYER
  2
15
 70
     0
 62
7
 6
CONTINUOUS
0
ENDTAB
  0
TABLE
  2
STYLE
 70
     1
  0
STYLE
  2
STANDARD
 70
     0
 40
0.0
 41
1.0
 50
0.0
 71
     0
 42
1.0
  3
TXT
  0
ENDTAB
  0
TABLE
  2
VIEW
 70
     0
  0
ENDTAB
  0
ENDSEC
  0
SECTION
  2
ENTITIES
  0
LINE
  8
1
 10
0.1
 20
0.1
 11
9.6
 21
0.1
  0
LINE
  8
1
 10
9.6
 20
0.1
 11
9.6
 21
7.1
  0
LINE
  8
1
 10
9.6
 20
7.1
 11
0.1
 21
7.1
  0
LINE
  8
1
 10
0.1
 20
7.1
 11
0.1
 21
0.1
  0
TEXT
  8
1
 10
6.03
 20
0.12
 40
0.06
  1
Date:
 41
1.333
  0
TEXT
  8
1
 10
6.51
 20
0.12
 40
0.06
  1
  October 18, 1995
 41
1.333
  0
TEXT
  8
1
 10
7.99
 20
0.12
 40
0.06
  1
Sheet
 41
1.333
  0
TEXT
  8
1
 10
8.95
 20
0.12
 40
0.06
  1
of
 41
1.333
  0
LINE
  8
1
 10
9.6
 20
0.21
 11
6.01
 21
0.21
  0
LINE
  8
1
 10
7.97
 20
0.1
 11
7.97
 21
0.21
  0
TEXT
  8
1
 10
6.03
 20
0.42
 40
0.06
  1
Size
 41
1.333
  0
TEXT
  8
1
 10
6.39
 20
0.42
 40
0.06
  1
Document Number
 41
1.333
  0
TEXT
  8
1
 10
9.34
 20
0.42
 40
0.06
  1
REV
 41
1.333
  0
TEXT
  8
1
 10
6.16
 20
0.27
 40
0.06
  1
A
 41
1.333
  0
LINE
  8
1
 10
9.32
 20
0.21
 11
9.32
 21
0.51
  0
LINE
  8
1
 10
9.6
 20
0.51
 11
6.01
 21
0.51
  0
LINE
  8
1
 10
6.37
 20
0.51
 11
6.37
 21
0.21
  0
LINE
  8
1
 10
9.6
 20
0.75
 11
6.01
 21
0.75
  0
LINE
  8
1
 10
6.01
 20
0.75
 11
6.01
 21
0.1
  0
TEXT
  8
1
 10
3.58
 20
5.77
 40
0.06
  1
A0
 41
1.333
  0
TEXT
  8
1
 10
3.87
 20
5.82
 40
0.06
  1
30
 41
1.333
  0
TEXT
  8
1
 10
3.58
 20
5.67
 40
0.06
  1
A1
 41
1.333
  0
TEXT
  8
1
 10
3.87
 20
5.72
 40
0.06
  1
31
 41
1.333
  0
TEXT
  8
1
 10
3.58
 20
5.57
 40
0.06
  1
A2
 41
1.333
  0
TEXT
  8
1
 10
3.87
 20
5.62
 40
0.06
  1
32
 41
1.333
  0
TEXT
  8
1
 10
3.58
 20
5.47
 40
0.06
  1
A3
 41
1.333
  0
TEXT
  8
1
 10
3.87
 20
5.52
 40
0.06
  1
33
 41
1.333
  0
TEXT
  8
1
 10
3.58
 20
5.37
 40
0.06
  1
A4
 41
1.333
  0
TEXT
  8
1
 10
3.87
 20
5.42
 40
0.06
  1
34
 41
1.333
  0
TEXT
  8
1
 10
3.58
 20
5.27
 40
0.06
  1
A5
 41
1.333
  0
TEXT
  8
1
 10
3.87
 20
5.32
 40
0.06
  1
35
 41
1.333
  0
TEXT
  8
1
 10
3.58
 20
5.17
 40
0.06
  1
A6
 41
1.333
  0
TEXT
  8
1
 10
3.87
 20
5.22
 40
0.06
  1
36
 41
1.333
  0
TEXT
  8
1
 10
3.58
 20
5.07
 40
0.06
  1
A7
 41
1.333
  0
TEXT
  8
1
 10
3.87
 20
5.12
 40
0.06
  1
37
 41
1.333
  0
TEXT
  8
1
 10
3.58
 20
4.97
 40
0.06
  1
A8
 41
1.333
  0
TEXT
  8
1
 10
3.87
 20
5.02
 40
0.06
  1
38
 41
1.333
  0
TEXT
  8
1
 10
3.58
 20
4.87
 40
0.06
  1
A9
 41
1.333
  0
TEXT
  8
1
 10
3.87
 20
4.92
 40
0.06
  1
39
 41
1.333
  0
TEXT
  8
1
 10
3.5
 20
4.77
 40
0.06
  1
A10
 41
1.333
  0
TEXT
  8
1
 10
3.87
 20
4.82
 40
0.06
  1
40
 41
1.333
  0
TEXT
  8
1
 10
3.5
 20
4.67
 40
0.06
  1
A11
 41
1.333
  0
TEXT
  8
1
 10
3.87
 20
4.72
 40
0.06
  1
 1
 41
1.333
  0
TEXT
  8
1
 10
3.5
 20
4.57
 40
0.06
  1
A12
 41
1.333
  0
TEXT
  8
1
 10
3.87
 20
4.62
 40
0.06
  1
 2
 41
1.333
  0
TEXT
  8
1
 10
3.5
 20
4.47
 40
0.06
  1
A13
 41
1.333
  0
TEXT
  8
1
 10
3.87
 20
4.52
 40
0.06
  1
 3
 41
1.333
  0
TEXT
  8
1
 10
3.5
 20
4.37
 40
0.06
  1
A14
 41
1.333
  0
TEXT
  8
1
 10
3.87
 20
4.42
 40
0.06
  1
 4
 41
1.333
  0
TEXT
  8
1
 10
3.5
 20
4.27
 40
0.06
  1
A15
 41
1.333
  0
TEXT
  8
1
 10
3.87
 20
4.32
 40
0.06
  1
 5
 41
1.333
  0
TEXT
  8
1
 10
3.58
 20
4.07
 40
0.06
  1
D0
 41
1.333
  0
TEXT
  8
1
 10
3.87
 20
4.12
 40
0.06
  1
14
 41
1.333
  0
TEXT
  8
1
 10
3.58
 20
3.97
 40
0.06
  1
D1
 41
1.333
  0
TEXT
  8
1
 10
3.87
 20
4.02
 40
0.06
  1
15
 41
1.333
  0
TEXT
  8
1
 10
3.58
 20
3.87
 40
0.06
  1
D2
 41
1.333
  0
TEXT
  8
1
 10
3.87
 20
3.92
 40
0.06
  1
12
 41
1.333
  0
TEXT
  8
1
 10
3.58
 20
3.77
 40
0.06
  1
D3
 41
1.333
  0
TEXT
  8
1
 10
3.87
 20
3.82
 40
0.06
  1
 8
 41
1.333
  0
TEXT
  8
1
 10
3.58
 20
3.67
 40
0.06
  1
D4
 41
1.333
  0
TEXT
  8
1
 10
3.87
 20
3.72
 40
0.06
  1
 7
 41
1.333
  0
TEXT
  8
1
 10
3.58
 20
3.57
 40
0.06
  1
D5
 41
1.333
  0
TEXT
  8
1
 10
3.87
 20
3.62
 40
0.06
  1
 9
 41
1.333
  0
TEXT
  8
1
 10
3.58
 20
3.47
 40
0.06
  1
D6
 41
1.333
  0
TEXT
  8
1
 10
3.87
 20
3.52
 40
0.06
  1
10
 41
1.333
  0
TEXT
  8
1
 10
3.58
 20
3.37
 40
0.06
  1
D7
 41
1.333
  0
TEXT
  8
1
 10
3.87
 20
3.42
 40
0.06
  1
13
 41
1.333
  0
CIRCLE
  8
1
 10
2.47
 20
5.8
 40
0.03
  0
TEXT
  8
1
 10
2.57
 20
5.77
 40
0.06
  1
M1
 41
1.333
  0
TEXT
  8
1
 10
2.21
 20
5.82
 40
0.06
  1
 27
 41
1.333
  0
CIRCLE
  8
1
 10
2.47
 20
5.6
 40
0.03
  0
TEXT
  8
1
 10
2.57
 20
5.57
 40
0.06
  1
MREQ
 41
1.333
  0
TEXT
  8
1
 10
2.21
 20
5.62
 40
0.06
  1
 19
 41
1.333
  0
CIRCLE
  8
1
 10
2.47
 20
5.5
 40
0.03
  0
TEXT
  8
1
 10
2.57
 20
5.47
 40
0.06
  1
IORQ
 41
1.333
  0
TEXT
  8
1
 10
2.21
 20
5.52
 40
0.06
  1
 20
 41
1.333
  0
CIRCLE
  8
1
 10
2.47
 20
5.4
 40
0.03
  0
TEXT
  8
1
 10
2.57
 20
5.37
 40
0.06
  1
WR
 41
1.333
  0
TEXT
  8
1
 10
2.21
 20
5.42
 40
0.06
  1
 22
 41
1.333
  0
CIRCLE
  8
1
 10
2.47
 20
5.3
 40
0.03
  0
TEXT
  8
1
 10
2.57
 20
5.27
 40
0.06
  1
RD
 41
1.333
  0
TEXT
  8
1
 10
2.21
 20
5.32
 40
0.06
  1
 21
 41
1.333
  0
CIRCLE
  8
1
 10
2.47
 20
5.1
 40
0.03
  0
TEXT
  8
1
 10
2.57
 20
5.07
 40
0.06
  1
REFSH
 41
1.333
  0
TEXT
  8
1
 10
2.21
 20
5.12
 40
0.06
  1
 28
 41
1.333
  0
CIRCLE
  8
1
 10
2.47
 20
4.9
 40
0.03
  0
TEXT
  8
1
 10
2.57
 20
4.87
 40
0.06
  1
HALT
 41
1.333
  0
TEXT
  8
1
 10
2.21
 20
4.92
 40
0.06
  1
 18
 41
1.333
  0
TEXT
  8
1
 10
2.57
 20
4.67
 40
0.06
  1
WAIT
 41
1.333
  0
TEXT
  8
1
 10
2.21
 20
4.72
 40
0.06
  1
 24
 41
1.333
  0
TEXT
  8
1
 10
2.57
 20
4.47
 40
0.06
  1
INT
 41
1.333
  0
TEXT
  8
1
 10
2.21
 20
4.52
 40
0.06
  1
 16
 41
1.333
  0
TEXT
  8
1
 10
2.57
 20
4.37
 40
0.06
  1
NMI
 41
1.333
  0
TEXT
  8
1
 10
2.21
 20
4.42
 40
0.06
  1
 17
 41
1.333
  0
TEXT
  8
1
 10
2.57
 20
4.17
 40
0.06
  1
RESET
 41
1.333
  0
TEXT
  8
1
 10
2.21
 20
4.22
 40
0.06
  1
 26
 41
1.333
  0
TEXT
  8
1
 10
2.57
 20
3.97
 40
0.06
  1
BUSRQ
 41
1.333
  0
TEXT
  8
1
 10
2.21
 20
4.02
 40
0.06
  1
 25
 41
1.333
  0
CIRCLE
  8
1
 10
2.47
 20
3.9
 40
0.03
  0
TEXT
  8
1
 10
2.57
 20
3.87
 40
0.06
  1
BUSAK
 41
1.333
  0
TEXT
  8
1
 10
2.21
 20
3.92
 40
0.06
  1
 23
 41
1.333
  0
LINE
  8
1
 10
2.5
 20
3.74
 11
2.54
 21
3.7
  0
LINE
  8
1
 10
2.54
 20
3.7
 11
2.5
 21
3.66
  0
TEXT
  8
1
 10
2.57
 20
3.67
 40
0.06
  1
CLK
 41
1.333
  0
TEXT
  8
1
 10
2.21
 20
3.72
 40
0.06
  1
  6
 41
1.333
  0
LINE
  8
1
 10
2.5
 20
5.9
 11
3.8
 21
5.9
  0
LINE
  8
1
 10
3.8
 20
5.9
 11
3.8
 21
3.3
  0
LINE
  8
1
 10
3.8
 20
3.3
 11
2.5
 21
3.3
  0
LINE
  8
1
 10
2.5
 20
3.3
 11
2.5
 21
5.9
  0
TEXT
  8
1
 10
2.56
 20
5.92
 40
0.06
  1
U?
 41
1.333
  0
TEXT
  8
1
 10
2.56
 20
3.22
 40
0.06
  1
Z80
 41
1.333
  0
LINE
  8
1
 10
2.2
 20
5.8
 11
2.44
 21
5.8
  0
LINE
  8
1
 10
2.44
 20
5.6
 11
2.2
 21
5.6
  0
LINE
  8
1
 10
2.2
 20
5.5
 11
2.44
 21
5.5
  0
LINE
  8
1
 10
2.44
 20
5.4
 11
2.2
 21
5.4
  0
LINE
  8
1
 10
2.2
 20
5.3
 11
2.44
 21
5.3
  0
LINE
  8
1
 10
2.44
 20
5.1
 11
2.2
 21
5.1
  0
LINE
  8
1
 10
2.2
 20
4.9
 11
2.44
 21
4.9
  0
LINE
  8
1
 10
2.5
 20
4.7
 11
2.2
 21
4.7
  0
LINE
  8
1
 10
2.2
 20
4.5
 11
2.5
 21
4.5
  0
LINE
  8
1
 10
2.5
 20
4.4
 11
2.2
 21
4.4
  0
LINE
  8
1
 10
2.2
 20
4.2
 11
2.5
 21
4.2
  0
LINE
  8
1
 10
2.5
 20
4.0
 11
2.2
 21
4.0
  0
LINE
  8
1
 10
2.2
 20
3.9
 11
2.44
 21
3.9
  0
LINE
  8
1
 10
2.5
 20
3.7
 11
2.2
 21
3.7
  0
LINE
  8
1
 10
3.8
 20
3.7
 11
4.1
 21
3.7
  0
LINE
  8
1
 10
4.1
 20
3.6
 11
3.8
 21
3.6
  0
LINE
  8
1
 10
3.8
 20
3.5
 11
4.1
 21
3.5
  0
LINE
  8
1
 10
4.1
 20
3.4
 11
3.8
 21
3.4
  0
LINE
  8
1
 10
3.8
 20
3.8
 11
4.1
 21
3.8
  0
LINE
  8
1
 10
4.1
 20
3.9
 11
3.8
 21
3.9
  0
LINE
  8
1
 10
3.8
 20
4.0
 11
4.1
 21
4.0
  0
LINE
  8
1
 10
4.1
 20
4.1
 11
3.8
 21
4.1
  0
LINE
  8
1
 10
3.8
 20
4.3
 11
4.1
 21
4.3
  0
LINE
  8
1
 10
4.1
 20
4.4
 11
3.8
 21
4.4
  0
LINE
  8
1
 10
3.8
 20
4.5
 11
4.1
 21
4.5
  0
LINE
  8
1
 10
4.1
 20
4.6
 11
3.8
 21
4.6
  0
LINE
  8
1
 10
3.8
 20
4.7
 11
4.1
 21
4.7
  0
LINE
  8
1
 10
4.1
 20
4.8
 11
3.8
 21
4.8
  0
LINE
  8
1
 10
3.8
 20
4.9
 11
4.1
 21
4.9
  0
LINE
  8
1
 10
4.1
 20
5.0
 11
3.8
 21
5.0
  0
LINE
  8
1
 10
3.8
 20
5.1
 11
4.1
 21
5.1
  0
LINE
  8
1
 10
4.1
 20
5.2
 11
3.8
 21
5.2
  0
LINE
  8
1
 10
3.8
 20
5.3
 11
4.1
 21
5.3
  0
LINE
  8
1
 10
4.1
 20
5.4
 11
3.8
 21
5.4
  0
LINE
  8
1
 10
3.8
 20
5.5
 11
4.1
 21
5.5
  0
LINE
  8
1
 10
4.1
 20
5.6
 11
3.8
 21
5.6
  0
LINE
  8
1
 10
3.8
 20
5.7
 11
4.1
 21
5.7
  0
LINE
  8
1
 10
4.1
 20
5.8
 11
3.8
 21
5.8
  0
ENDSEC
  0
EOF
